<svg xmlns="http://www.w3.org/2000/svg" height="800" width="1200" id="svg8" version="1.1" viewBox="-4.157853 -1.5556225 36.034726 9.333735"><defs id="defs2"><style id="style10">.cls-1{fill:#006bac}</style></defs><g transform="translate(160.38198 -345.91718)" id="layer1"><g transform="translate(.1323 -.1323)" id="g54"><path class="cls-1" d="M-155.97552 349.72166h-3.65918a2.11667 2.11667 0 00.13758.79375 1.47637 1.47637 0 00.92869.87842 2.19604 2.19604 0 00.70114.10583 2.75431 2.75431 0 001.02129-.20372 2.50031 2.50031 0 00.7329-.40217h.0344v.91546a6.93208 6.93208 0 01-.86784.29898 3.53219 3.53219 0 01-.93133.1217 2.68288 2.68288 0 01-1.9341-.66675q-.6985-.67204-.6985-1.91293a2.74373 2.74373 0 01.66939-1.94469 2.28865 2.28865 0 011.75948-.71967 2.01613 2.01613 0 011.5584.59267 2.38125 2.38125 0 01.54768 1.6854v.45772m-.81227-.65352a1.51342 1.51342 0 00-.33073-1.02393 1.26735 1.26735 0 00-.99483-.37571 1.43933 1.43933 0 00-1.05833.40216 1.56898 1.56898 0 00-.45244.99748z" id="path16" fill="#006bac" stroke-width=".26458"/><path class="cls-1" d="M-150.9405 350.67152a1.36525 1.36525 0 01-.56356 1.12448 2.45269 2.45269 0 01-1.54252.43921 3.70417 3.70417 0 01-1.016-.1323 4.49792 4.49792 0 01-.77523-.28839v-.94721h.045a3.29142 3.29142 0 00.87842.48683 2.64583 2.64583 0 00.92869.17992 1.70656 1.70656 0 00.86254-.18256.61912.61912 0 00.30956-.57415.57415.57415 0 00-.16933-.44979 1.52135 1.52135 0 00-.65088-.26458q-.17727-.0397-.46567-.0952-.28839-.0556-.52916-.11642a1.73831 1.73831 0 01-.92869-.51329 1.28323 1.28323 0 01-.26458-.83079 1.35996 1.35996 0 01.127-.58209 1.39965 1.39965 0 01.38629-.48948 1.85208 1.85208 0 01.63764-.32808 2.8575 2.8575 0 01.86784-.12171 3.9079 3.9079 0 01.90752.10848 3.43958 3.43958 0 01.76464.26459v.89958h-.045a2.9898 2.9898 0 00-.78053-.40746 2.64583 2.64583 0 00-.89958-.16669 1.54517 1.54517 0 00-.77523.17992.58208.58208 0 00-.3175.52917.5662.5662 0 00.1905.46566 1.48431 1.48431 0 00.6059.26459q.23019.0529.52916.10848c.1905.0344.3519.0688.4789.0979a1.77006 1.77006 0 01.89958.46302 1.22237 1.22237 0 01.31486.87842" id="path18" fill="#006bac" stroke-width=".26458"/><path class="cls-1" d="M-145.68322 352.12408h-.84403v-.55033a4.10633 4.10633 0 01-.8202.51594 2.04258 2.04258 0 01-.8599.17991 1.5875 1.5875 0 01-1.22767-.48154 2.02935 2.02935 0 01-.4392-1.41287v-3.24644h.84402v2.85221a5.08 5.08 0 00.037.65352 1.18269 1.18269 0 00.15081.46302.71967.71967 0 00.31221.28839 1.37319 1.37319 0 00.56092.09 1.78594 1.78594 0 00.71437-.16933 3.31523 3.31523 0 00.72231-.43392v-3.74385h.84402v4.99533" id="path20" fill="#006bac" stroke-width=".26458"/><path class="cls-1" d="M-141.28056 348.04421h-.045a3.37608 3.37608 0 00-.36512-.0609 4.10898 4.10898 0 00-.41804-.0185 1.72508 1.72508 0 00-.74084.16404 3.43958 3.43958 0 00-.70643.4445v3.55071h-.84138v-4.99533h.84402v.73819a4.14073 4.14073 0 01.88371-.5715 1.92352 1.92352 0 01.78052-.16669h.3175l.29369.0423v.87313" id="path22" fill="#006bac" stroke-width=".26458"/><path class="cls-1" d="M-136.02858 349.72166h-3.64596a2.11667 2.11667 0 00.13759.79375 1.47637 1.47637 0 00.92075.88371 2.19869 2.19869 0 00.70114.10584 2.75696 2.75696 0 001.02129-.20373 2.5109 2.5109 0 00.7329-.40217h.045v.91546a6.9268 6.9268 0 01-.86783.29898 3.53219 3.53219 0 01-.93134.12171 2.68288 2.68288 0 01-1.94204-.67469q-.6985-.67204-.6985-1.91294a2.74373 2.74373 0 01.6694-1.94469 2.28865 2.28865 0 011.75154-.71702 2.01613 2.01613 0 011.55839.59267 2.38125 2.38125 0 01.54769 1.6854v.45772m-.81227-.65352a1.51342 1.51342 0 00-.33073-1.02393 1.26735 1.26735 0 00-.99483-.37571 1.43669 1.43669 0 00-1.05834.40216 1.57163 1.57163 0 00-.44979 1.00013z" id="path24" fill="#006bac" stroke-width=".26458"/><path class="cls-1" d="M-132.79537 347.12875a1.04246 1.04246 0 01-.31485.762 1.0795 1.0795 0 01-1.52665 0 1.03981 1.03981 0 01-.3175-.762 1.03717 1.03717 0 01.30692-.762 1.07685 1.07685 0 011.52664 0 1.03981 1.03981 0 01.32544.762m-.14552 0a.91017.91017 0 00-.26458-.66411.92604.92604 0 00-1.32292 0 .91281.91281 0 00-.26458.66411.91281.91281 0 00.26458.6641.9234.9234 0 001.32292 0 .91017.91017 0 00.254-.6641zm-.23813.54769h-.28045l-.42069-.44186h-.20109v.4445h-.20637v-1.143h.38894a1.60073 1.60073 0 01.19314 0 .4392.4392 0 01.15082.0476.29369.29369 0 01.11641.10318.29104.29104 0 01.037.15082.29104.29104 0 01-.0714.20108.4789.4789 0 01-.19315.127zm-.4392-.81492a.17198.17198 0 00-.0185-.0794.127.127 0 00-.0582-.0582.23813.23813 0 00-.082-.0291h-.29369v.381h.15875a.6641.6641 0 00.13229 0 .22225.22225 0 00.0926-.0397.16933.16933 0 00.0556-.0688.24606.24606 0 00.003-.10319z" id="path26" fill="#006bac" stroke-width=".26458"/></g></g></svg>